<svg width="21" height="20" fill="none" xmlns="http://www.w3.org/2000/svg"><path d="M8.005 19c.552 0 1-.445 1-.993a.997.997 0 00-1-.992c-.553 0-1.001.444-1.001.992s.448.993 1 .993zM17.015 19c.552 0 1-.444 1-.992a.997.997 0 00-1-.993c-.553 0-1.001.444-1.001.992 0 .549.448.993 1 .993zM1 1h3.457l2.317 11.477c.079.395.295.75.611 1.002s.712.386 1.118.378h8.401c.406.008.801-.126 1.117-.378.316-.253.533-.607.612-1.002l1.383-7.191H5.322" stroke="#333" stroke-width="1.5" stroke-linecap="round" stroke-linejoin="round"/></svg>