<svg width="18" height="17" fill="none" xmlns="http://www.w3.org/2000/svg"><path d="M4.861 8.829h7.942c1.753 0 3.176-1.375 3.176-3.064 0-1.688-1.426-3.063-3.176-3.063H5.055a2.042 2.042 0 00-2.447-1.655 2.05 2.05 0 00-1.593 2.24 2.047 2.047 0 002.369 1.77 2.047 2.047 0 001.675-1.675h7.748c1.375 0 2.495 1.07 2.495 2.383 0 1.314-1.12 2.383-2.495 2.383H4.86c-1.753 0-3.18 1.376-3.18 3.064 0 1.688 1.427 3.064 3.177 3.064h5.532l-1.457 1.46a.336.336 0 00-.007.48.339.339 0 00.487 0l2.039-2.04a.339.339 0 000-.479l-2.04-2.042a.342.342 0 00-.48.006.344.344 0 000 .473l1.461 1.46H4.861c-1.378 0-2.498-1.068-2.498-2.382s1.12-2.383 2.498-2.383zM3.044 4.4a1.361 1.361 0 11-.001-2.722 1.361 1.361 0 010 2.722zM14.958 11.89a2.044 2.044 0 00-2.043 2.042c0 1.127.916 2.042 2.043 2.042A2.044 2.044 0 0017 13.932c0-1.127-.912-2.04-2.042-2.043zm0 3.403a1.361 1.361 0 11-.001-2.722 1.361 1.361 0 010 2.723z" fill="#F2F2F2" stroke="#F2F2F2" stroke-width=".4"/></svg>