<svg width="19" height="20" fill="none" xmlns="http://www.w3.org/2000/svg"><path d="M13.206 7.632L5.069 2.98M17.273 13.55V6.376a1.8 1.8 0 00-.904-1.551L10.04 1.24a1.82 1.82 0 00-1.808 0L1.904 4.826A1.782 1.782 0 001 6.377v7.172a1.781 1.781 0 00.904 1.551l6.328 3.586a1.82 1.82 0 001.808 0L16.37 15.1a1.8 1.8 0 00.661-.655 1.78 1.78 0 00.243-.896z" stroke="#333" stroke-width="1.5" stroke-linecap="round" stroke-linejoin="round"/><path d="M1.244 5.445l7.892 4.527 7.893-4.527M9.136 19V9.963" stroke="#333" stroke-width="1.5" stroke-linecap="round" stroke-linejoin="round"/></svg>