<svg width="18" height="17" fill="none" xmlns="http://www.w3.org/2000/svg"><path d="M13.6 15.665a.54.54 0 01-.313-.098l-4.288-3.052-4.287 3.052a.54.54 0 01-.822-.267.515.515 0 01.003-.325l1.673-4.863-4.334-2.918a.525.525 0 01-.208-.587c.033-.106.1-.2.192-.266a.54.54 0 01.316-.103h5.346l1.614-4.876a.524.524 0 01.194-.262.54.54 0 01.82.262L11.12 6.24h5.346a.54.54 0 01.317.103.524.524 0 01.187.593.526.526 0 01-.202.26l-4.335 2.917 1.67 4.862a.515.515 0 01-.26.633.542.542 0 01-.243.058z" stroke="#F2F2F2"/></svg>