<svg width="120" height="25" fill="none" xmlns="http://www.w3.org/2000/svg"><g clip-path="url(#clip0_0_23)"><path d="M45.852 6.108H34.026l-1.288 13.477 11.801.009.373-3.698h-7.108l.591-6.115h2.383L39.084 14.7l4.726.016 1.685-4.91.357-3.698zM19.623 19.602L21.147 3.64l-1.191-.009.34-3.631h5.95l-1.07 11.067 2.828-4.96 4.75-.008-2.894 4.919 2.416-.017-1.313 13.527h-4.734l.957-9.813h-2.432l-.454 4.886h-4.677zM13.585 19.602l4.725-.017 1.313-13.477h-4.726l-1.313 13.494zM.495 19.602L2.018 3.64.794 3.632 1.143.001h5.965L5.56 15.937h2.367l.592-6.132H7.335l.34-3.705h5.918l-1.297 13.502H.495z" fill="#fff"/><path fill-rule="evenodd" clip-rule="evenodd" d="M.39 20.373l24.972.049-.365 4.222L0 24.594l.39-4.23v.009zM120 6.239h-11.842l-1.297 13.502h4.701l.965-9.837h2.359l-.236 2.46h4.75l.6-6.174v.05zm-13.131 0l-.356 3.698-1.694 4.918h-4.718l1.694-4.918h-2.383l-.591 6.115h7.108l-.373 3.698H93.755l1.289-13.47 11.825-.04zm-21.52 13.502h7.1l.333-3.68h-2.367l.592-6.133h2.432l.348-3.68h-2.431l.227-2.46h-4.734l-1.5 15.953zm0-13.469l-1.28 13.486h-4.717l.94-9.838h-2.383L77 19.758h-4.685l1.256-13.486H85.35zm-13.09 0H60.45l-1.28 13.47h11.802l.356-3.681h-7.1l.616-6.116h2.383l-1.694 4.919h4.725l1.694-4.92.357-3.696-.049.024zm-13.09 0l-.478 4.87h-4.782l.121-1.189h-2.35l-.616 6.108h2.367l.13-1.238h4.757l-.494 4.918H45.998l1.313-13.469h11.858z" fill="#E30613"/></g><defs><clipPath id="clip0_0_23"><path fill="#fff" d="M0 0h120v24.643H0z"/></clipPath></defs></svg>